# xmcd CD database file
#
# Track frame offsets:
#	150
#	19770
#	37620
#	58382
#
# Disc length: 916 seconds
#
# Revision: 0
# Processed by: cddbd v1.5PL3 Copyright (c) Steve Scherf et al.
# Submitted via: CDex 1.50
#
DISCID=29039204
DTITLE=K-SAMA☆ロマンフィルム - ぬ・す・み・ぎ・き
DYEAR=2001
DGENRE=JPop
TTITLE0=ぬ・す・み・ぎ・き
TTITLE1=ＰＩＮＫのいそぎんちゃく
TTITLE2=密室
TTITLE3=Ｋ−ＳＡＭＡ＠ＧＯ！ＧＯ！
EXTD=YEAR: 2001
EXTT0=
EXTT1=
EXTT2=
EXTT3=
PLAYORDER=
